<svg id="visual" viewBox="0 0 1900 450" width="1900" height="450" xmlns="http://www.w3.org/2000/svg" xmlns:xlink="http://www.w3.org/1999/xlink" version="1.1"><path d="M0 320L35.2 310C70.3 300 140.7 280 211 274.3C281.3 268.7 351.7 277.3 422 284.3C492.3 291.3 562.7 296.7 633 293C703.3 289.3 773.7 276.7 844.2 282C914.7 287.3 985.3 310.7 1055.8 306.7C1126.3 302.7 1196.7 271.3 1267 266.7C1337.3 262 1407.7 284 1478 287C1548.3 290 1618.7 274 1689 271.8C1759.3 269.7 1829.7 281.3 1864.8 287.2L1900 293L1900 451L1864.8 451C1829.7 451 1759.3 451 1689 451C1618.7 451 1548.3 451 1478 451C1407.7 451 1337.3 451 1267 451C1196.7 451 1126.3 451 1055.8 451C985.3 451 914.7 451 844.2 451C773.7 451 703.3 451 633 451C562.7 451 492.3 451 422 451C351.7 451 281.3 451 211 451C140.7 451 70.3 451 35.2 451L0 451Z" fill="#db0fad"></path><path d="M0 300L35.2 304C70.3 308 140.7 316 211 313.2C281.3 310.3 351.7 296.7 422 303.5C492.3 310.3 562.7 337.7 633 350.2C703.3 362.7 773.7 360.3 844.2 344.7C914.7 329 985.3 300 1055.8 296.2C1126.3 292.3 1196.7 313.7 1267 318.5C1337.3 323.3 1407.7 311.7 1478 316.2C1548.3 320.7 1618.7 341.3 1689 348.5C1759.3 355.7 1829.7 349.3 1864.8 346.2L1900 343L1900 451L1864.8 451C1829.7 451 1759.3 451 1689 451C1618.7 451 1548.3 451 1478 451C1407.7 451 1337.3 451 1267 451C1196.7 451 1126.3 451 1055.8 451C985.3 451 914.7 451 844.2 451C773.7 451 703.3 451 633 451C562.7 451 492.3 451 422 451C351.7 451 281.3 451 211 451C140.7 451 70.3 451 35.2 451L0 451Z" fill="#f42c8f"></path><path d="M0 399L35.2 387C70.3 375 140.7 351 211 347.8C281.3 344.7 351.7 362.3 422 375.5C492.3 388.7 562.7 397.3 633 401C703.3 404.7 773.7 403.3 844.2 396.5C914.7 389.7 985.3 377.3 1055.8 378C1126.3 378.7 1196.7 392.3 1267 387.2C1337.3 382 1407.7 358 1478 352.2C1548.3 346.3 1618.7 358.7 1689 365.8C1759.3 373 1829.7 375 1864.8 376L1900 377L1900 451L1864.8 451C1829.7 451 1759.3 451 1689 451C1618.7 451 1548.3 451 1478 451C1407.7 451 1337.3 451 1267 451C1196.7 451 1126.3 451 1055.8 451C985.3 451 914.7 451 844.2 451C773.7 451 703.3 451 633 451C562.7 451 492.3 451 422 451C351.7 451 281.3 451 211 451C140.7 451 70.3 451 35.2 451L0 451Z" fill="#ff5177"></path><path d="M0 386L35.2 384.8C70.3 383.7 140.7 381.3 211 379.7C281.3 378 351.7 377 422 380.5C492.3 384 562.7 392 633 399.8C703.3 407.7 773.7 415.3 844.2 419.3C914.7 423.3 985.3 423.7 1055.8 424.2C1126.3 424.7 1196.7 425.3 1267 423.2C1337.3 421 1407.7 416 1478 405.8C1548.3 395.7 1618.7 380.3 1689 385.5C1759.3 390.7 1829.7 416.3 1864.8 429.2L1900 442L1900 451L1864.8 451C1829.7 451 1759.3 451 1689 451C1618.7 451 1548.3 451 1478 451C1407.7 451 1337.3 451 1267 451C1196.7 451 1126.3 451 1055.8 451C985.3 451 914.7 451 844.2 451C773.7 451 703.3 451 633 451C562.7 451 492.3 451 422 451C351.7 451 281.3 451 211 451C140.7 451 70.3 451 35.2 451L0 451Z" fill="#ff7368"></path></svg>